<?xml version="1.0" encoding="UTF-8"?>
<svg id="Layer_1" data-name="Layer 1" xmlns="http://www.w3.org/2000/svg" viewBox="0 0 504.02 399.97">
  <defs>
    <style>
      .cls-1 {
        fill: #7065ee;
      }
    </style>
  </defs>
  <path class="cls-1" d="M480.01,320.22H24.01c0,1.99,0,3.77,0,5.54,0,20.5,.06,40.99-.04,61.49-.03,7.46-5.13,12.7-11.92,12.72-6.81,.02-11.8-5.22-12.03-12.64-.04-1.17-.01-2.33-.01-3.5,0-12.83,0-25.66,0-38.49,0-51.32,0-102.64,0-153.96,0-11.24,4.11-15.36,15.33-15.37,7.98,0,15.96,0,24.66,0v-6.01c0-51.49,0-102.98,0-154.46C40.01,4,44.05,0,55.69,0,186.66,0,317.63,0,448.6,0c11.28,0,15.4,4.09,15.41,15.29,0,51.32,0,102.64,0,153.96v6.35c1.42,.14,2.68,.37,3.94,.38,7.83,.04,15.66-.08,23.49,.06,7.63,.13,12.3,4.93,12.56,12.6,.04,1.17,.01,2.33,.01,3.5,0,63.99,0,127.97,0,191.96,0,10.19-4.14,15.74-11.8,15.88-7.81,.13-12.19-5.6-12.2-15.98,0-19.33,0-38.66,0-57.99v-5.78ZM439.79,24.35H64.41V175.73H439.79V24.35ZM24.25,295.67H479.62v-95.42H24.25v95.42Z"/>
</svg>