<?xml version="1.0" encoding="UTF-8"?>
<svg id="Layer_1" data-name="Layer 1" xmlns="http://www.w3.org/2000/svg" viewBox="0 0 426.56 373.5">
  <defs>
    <style>
      .cls-1 {
        fill: #7065ee;
      }
    </style>
  </defs>
  <path class="cls-1" d="M212.79,52.64c9.34-9.03,18.1-18.69,28.05-26.92,57.68-47.73,136.41-23.96,169.02,31.94,22.81,39.09,22.07,78.47-1,117.45-12.29,20.77-27.01,39.77-43.97,56.75-34.24,34.3-69.21,67.89-103.92,101.72-11.57,11.28-23.3,22.4-34.93,33.62-8.7,8.4-17.07,8.36-25.75,.07-36.25-34.65-72.81-68.98-108.74-103.97-25.19-24.53-49.48-49.99-68.83-79.62-10.27-15.72-18.93-32.32-21.51-51.14C-4.03,94.32,7.75,61.42,34.75,34.24c38.09-38.33,105.94-51.73,158.58-1.82,6.87,6.51,13.16,13.64,19.46,20.21Zm.1,282.26c.84-.48,1.17-.59,1.4-.81,38.18-36.71,76.71-73.08,114.39-110.3,21.36-21.1,40.05-44.52,54.84-70.92,14.26-25.46,14.21-50.78,.59-76.17-23.1-43.04-78.44-57.73-118.06-31.45-16.15,10.71-27.76,25.68-38.25,41.67-8.24,12.56-20.81,12.26-29.51-.02-6.82-9.62-13.82-19.24-21.84-27.85-15.71-16.87-35-26.43-58.64-26.88-61.51-1.18-108.14,66.74-74.39,122.17,13.52,22.19,28.51,43.17,46.74,61.49,31.12,31.29,63.1,61.72,94.77,92.47,9.19,8.92,18.55,17.66,27.96,26.61Z"/>
</svg>