<?xml version="1.0" encoding="UTF-8"?>
<svg id="Layer_1" data-name="Layer 1" xmlns="http://www.w3.org/2000/svg" viewBox="0 0 426.4 373.5">
  <defs>
    <style>
      .cls-1 {
        fill: red;
      }
    </style>
  </defs>
  <path class="cls-1" d="M213.49,53.41c11.4-14.22,24.12-26.56,39.24-36.37C300.99-14.26,364.69,.06,399.72,43.15c27.96,34.38,38.53,83.7,9.04,132.21-12.45,20.47-26.87,39.47-43.7,56.34-34.24,34.31-69.19,67.9-103.9,101.73-11.69,11.4-23.54,22.63-35.29,33.96-8.46,8.16-16.96,8.12-25.39,.07-36.37-34.77-73.05-69.22-109.09-104.32-25.19-24.53-49.46-50.01-68.79-79.65-10.16-15.58-18.74-32.05-21.34-50.68C-4.09,94.38,7.74,61.34,34.94,34.07c38.06-38.16,105.85-51.58,158.59-1.47,6.84,6.5,13.1,13.63,19.97,20.81Z"/>
</svg>