<svg id="Layer_1" data-name="Layer 1" xmlns="http://www.w3.org/2000/svg" viewBox="0 0 367.25 381.59">
  <defs>
    <style>
      .cls-1 {
        fill: none;
        stroke: #fff;
        stroke-linecap: round;
        stroke-linejoin: round;
        stroke-width: 19px;
      }

      .cls-2 {
        fill: #6867ae;
      }
    </style>
  </defs>
  <path class="cls-2" d="M355.51,126.21c7.41,5.79,11.74,14.67,11.74,24.08v199.13c0,17.77-14.4,32.17-32.16,32.17H32.16c-17.76,0-32.16-14.4-32.16-32.17V150.29c0-9.4,4.33-18.28,11.73-24.08L164.79,6.49c11.06-8.65,26.6-8.65,37.67,0l153.06,119.72Z"/>
  <path class="cls-1" d="M49.99,217.46c9.83,12.28,25.8,29.99,49.02,46.98,26.28,19.23,45.39,33.22,70.98,32.68,24.45-.52,42.23-14.04,67.4-33.19,21.65-16.47,36.61-33.46,45.96-45.45"/>
  <path class="cls-2" d="M75.95,147.46c19.25,11.96,39.44,22.43,60.31,31.27"/>
</svg>