<svg id="Layer_1" data-name="Layer 1" xmlns="http://www.w3.org/2000/svg" viewBox="0 0 367.25 381.59">
  <defs>
    <style>
      .cls-1 {
        fill: none;
        stroke: #fff;
        stroke-linecap: round;
        stroke-linejoin: round;
        stroke-width: 30px;
      }

      .cls-2 {
        fill: #7065ee;
      }
    </style>
  </defs>
  <path class="cls-2" d="M355.51,126.21c7.41,5.79,11.74,14.67,11.74,24.08v199.13c0,17.77-14.4,32.17-32.16,32.17H32.16c-17.76,0-32.16-14.4-32.16-32.17V150.29c0-9.4,4.33-18.28,11.73-24.08L164.79,6.49c11.06-8.65,26.6-8.65,37.67,0l153.06,119.72Z"/>
  <path class="cls-1" d="M68.22,232.27c9.89,6.78,25.97,16.54,49.34,25.92,26.45,10.61,45.69,18.33,71.44,18.03,24.61-.28,42.5-7.75,67.85-18.31,21.8-9.09,36.85-18.46,46.26-25.07"/>
  <path class="cls-2" d="M94.95,162.27c19.25,11.96,39.44,22.43,60.31,31.27"/>
</svg>