<?xml version="1.0" encoding="UTF-8"?>
<svg id="Layer_1" data-name="Layer 1" xmlns="http://www.w3.org/2000/svg" viewBox="0 0 451.48 348.38">
  <defs>
    <style>
      .cls-1 {
        fill: #7065ee;
      }
    </style>
  </defs>
  <path class="cls-1" d="M225.78,194.9c-66.83,0-133.66,.01-200.49-.03-3.32,0-6.73-.08-9.93-.83C6.35,191.93-.31,182.87,.01,173.67c.35-9.93,7.58-18.22,17.33-19.72,2.29-.35,4.64-.46,6.97-.46,134.33-.02,268.65-.02,402.98-.01,13.71,0,22.05,6.22,23.94,17.74,1.72,10.53-5.51,21.09-16,23.03-3.09,.57-6.3,.63-9.45,.63-66.66,.03-133.33,.03-199.99,.03Z"/>
  <path class="cls-1" d="M225.29,348.36c-67.67,0-135.33,.01-203-.01-11.58,0-19.72-6.29-21.75-16.62-2.4-12.17,6.32-23.61,18.75-24.55,1.33-.1,2.67-.06,4-.06,135,0,270,0,404.99,0,12.83,0,21.08,6.39,22.93,17.68,1.88,11.48-6.83,22.61-18.43,23.47-2.16,.16-4.33,.09-6.5,.09-67,0-134,0-201,0Z"/>
  <path class="cls-1" d="M225.79,.01c67.83,0,135.66,0,203.5,.01,11.35,0,19.55,6.16,21.67,16.11,2.65,12.42-6.01,24.05-18.67,25.05-1.33,.11-2.67,.07-4,.07-135,0-269.99,0-404.99,0-12.76,0-21.08-6.45-22.94-17.7C-1.55,12.11,7.22,.93,18.8,.1c2.16-.16,4.33-.08,6.5-.08,66.83,0,133.66,0,200.5,0Z"/>
</svg>