<?xml version="1.0" encoding="UTF-8"?>
<svg id="Layer_1" data-name="Layer 1" xmlns="http://www.w3.org/2000/svg" viewBox="0 0 371.75 370.09">
  <defs>
    <style>
      .cls-1 {
        fill: #7065ee;
      }
    </style>
  </defs>
  <path class="cls-1" d="M25.87,146.39H0V0H371.75V370.04H224.75v-25.67h5.31c36.86,0,73.72-.06,110.58,.08,3.99,.02,5.37-.73,5.36-5.1-.14-102.88-.14-205.76,0-308.64,0-4.31-1.27-5.14-5.33-5.14-103.16,.11-206.31,.09-309.47,.09q-5.3,0-5.31,5.38c0,36.99-.01,73.97-.02,110.96,0,1.34,0,2.68,0,4.39Z"/>
  <path class="cls-1" d="M.03,370.09V185.56H185.19v184.54H.03ZM26.13,211.63c-.09,1.56-.23,2.89-.23,4.22-.01,41.36,.04,82.73-.1,124.09-.01,3.76,1.2,4.5,4.7,4.49,41.39-.11,82.78-.07,124.18-.08,1.46,0,2.92-.14,4.38-.22V211.63H26.13Z"/>
  <path class="cls-1" d="M324.9,146.46h-25.77v-54.95c-28.79,28.69-57.09,56.9-85.15,84.86-6.66-6.67-12.62-12.64-18.91-18.94,27.92-27.78,56.27-55.99,85.49-85.05h-55.93v-25.76h100.27v99.83Z"/>
</svg>