<?xml version="1.0" encoding="UTF-8"?>
<svg id="Layer_1" data-name="Layer 1" xmlns="http://www.w3.org/2000/svg" viewBox="0 0 512 512">
  <defs>
    <style>
      .cls-1 {
        fill: #7065ee;
      }
    </style>
  </defs>
  <path class="cls-1" d="M512,116c-13.33,13.93-26.56,27.96-40,41.78-112.59,115.69-225.21,231.35-337.86,346.98-2.53,2.59-5.42,4.83-8.14,7.24h-7c-3.23-3.04-6.54-6.01-9.68-9.14-33.53-33.49-67.04-67-100.53-100.53C5.78,399.3,2.93,396.11,0,393c0-2.33,0-4.67,0-7,2.17-2.48,4.18-5.13,6.54-7.43C130.05,258.26,253.59,137.97,377.15,17.7,383.33,11.69,389.71,5.89,396,0c2.33,0,4.67,0,7,0,2.93,2.65,5.98,5.19,8.77,7.98,30.89,30.84,61.75,61.7,92.59,92.6,2.67,2.68,5.1,5.61,7.64,8.43v7Zm-164.62-41.06c-8.73,9.45-16.94,18.34-25.71,27.83,3.39,3.22,7.92,7.36,12.25,11.7,5.16,5.17,5.44,11.52,.93,15.86-4.33,4.17-10.55,3.81-15.51-1.17-4.45-4.47-8.67-9.19-13.36-14.2-9.06,9.63-17.42,18.51-26.2,27.83,.76,.63,2.26,1.71,3.56,3,10.28,10.23,20.52,20.49,30.76,30.75,3.08,3.09,4.23,6.75,2.89,10.96-1.29,4.02-4.27,7.07-8.28,6.82-3.46-.21-7.55-1.76-10.04-4.12-11.59-10.99-22.73-22.46-34.37-34.11-8.56,9.18-16.89,18.12-25.49,27.35,3.8,3.71,8.39,8.08,12.85,12.57,5.4,5.43,5.85,11.84,1.26,16.23-4.46,4.27-10.59,3.74-15.88-1.51-4.71-4.67-9.31-9.45-14.4-14.62-8.72,9.35-17,18.22-25.78,27.64,2.98,2.8,6.82,6.25,10.49,9.87,8.41,8.32,16.77,16.7,25.08,25.12,3.05,3.09,4.08,6.83,2.52,11.02-1.47,3.95-4.54,6.9-8.54,6.52-3.46-.33-7.44-2.03-9.95-4.42-11.8-11.27-23.17-22.99-35.16-35.01-8.54,9.26-16.83,18.26-25.41,27.57,4.27,4.16,9.38,8.94,14.21,14,1.65,1.73,3.19,4.01,3.72,6.28,1.1,4.68-.71,8.64-4.97,10.99-4.43,2.46-8.79,1.82-12.39-1.74-5.52-5.45-10.85-11.1-16.6-17.01-8.98,9.59-17.23,18.4-25.59,27.33,.25,.27,.91,1.01,1.61,1.71,11.42,11.44,22.92,22.81,34.25,34.33,4.77,4.85,4.8,10.82,.51,15.14-4.18,4.21-10.36,4.05-15.17-.51-3.14-2.98-6.15-6.1-9.22-9.17-9.27-9.28-18.53-18.56-28.26-28.3-8.55,9.24-16.78,18.13-25.42,27.48,1.22,1.13,3.35,2.99,5.35,4.97,4.02,3.99,8.16,7.89,11.88,12.15,3.51,4.02,3.12,9.96-.39,13.67-3.74,3.95-9.59,4.38-14.03,.87-1.69-1.33-3.18-2.94-4.68-4.49-4.58-4.74-9.12-9.51-14.07-14.68-10.72,11.25-20.69,21.73-30.09,31.6,32.01,32.03,64.45,64.48,97.12,97.16,120.88-124.06,242.14-248.51,363.18-372.74-22.79-22.76-45.28-45.22-67.75-67.66-7.04,7.57-11.8,7.67-19.57-.24-3.49-3.55-6.71-7.36-10.46-11.5-9.09,9.7-17.36,18.51-25.82,27.53,.64,.67,1.73,1.9,2.89,3.06,9.77,9.79,19.6,19.53,29.32,29.36,4.95,5,5.29,11.22,1.09,15.55-4.48,4.61-10.48,4.27-15.88-.93-1.68-1.62-3.3-3.29-4.94-4.96-9.33-9.46-18.66-18.93-28.36-28.77Z"/>
</svg>